P3
5 5
255
0 0 0 0 0 0 0 0 0 0 0 0 0 0 0 
0 0 0 0 0 0 0 0 0 0 0 0 0 0 0 
152 152 152 31 31 31 127 127 127 0 0 0 0 0 0 
25 25 25 127 127 127 0 0 0 0 0 0 0 0 0 
152 152 152 31 31 31 127 127 127 0 0 0 0 0 0 
