P3
5 5
255
191 191 191 109 109 109 181 181 181 101 101 101 127 127 127 
102 102 102 176 176 176 92 92 92 146 146 146 38 38 38 
191 191 191 109 109 109 181 181 181 101 101 101 127 127 127 
102 102 102 176 176 176 92 92 92 146 146 146 38 38 38 
191 191 191 109 109 109 181 181 181 101 101 101 127 127 127 
